<svg width="28" height="28" viewBox="0 0 28 28" fill="none" xmlns="http://www.w3.org/2000/svg">
<g filter="url(#filter0_d_2237_2072)">
<rect x="4" width="20" height="20" rx="10" fill="#9BB168" shape-rendering="crispEdges"/>
<path fill-rule="evenodd" clip-rule="evenodd" d="M17.21 6.85632C17.5134 6.73068 17.8384 6.66602 18.1667 6.66602C18.4951 6.66602 18.8201 6.73068 19.1235 6.85632C19.4268 6.98195 19.7024 7.1661 19.9345 7.39825C20.1667 7.6304 20.3508 7.90599 20.4764 8.20931C20.6021 8.51262 20.6667 8.83771 20.6667 9.16602C20.6667 9.62625 20.2937 9.99935 19.8334 9.99935C19.3732 9.99935 19.0001 9.62625 19.0001 9.16602C19.0001 9.05658 18.9785 8.94822 18.9366 8.84711C18.8948 8.74601 18.8334 8.65414 18.756 8.57676C18.6786 8.49938 18.5868 8.43799 18.4857 8.39612C18.3845 8.35424 18.2762 8.33268 18.1667 8.33268C18.0573 8.33268 17.9489 8.35424 17.8478 8.39612C17.7467 8.43799 17.6549 8.49938 17.5775 8.57676C17.5001 8.65414 17.4387 8.74601 17.3968 8.84711C17.355 8.94822 17.3334 9.05658 17.3334 9.16602C17.3334 9.62625 16.9603 9.99935 16.5001 9.99935C16.0398 9.99935 15.6667 9.62625 15.6667 9.16602C15.6667 8.83771 15.7314 8.51262 15.857 8.20931C15.9827 7.90599 16.1668 7.6304 16.399 7.39825C16.6311 7.1661 16.9067 6.98195 17.21 6.85632Z" fill="#3D4A26"/>
<path fill-rule="evenodd" clip-rule="evenodd" d="M18.2405 11.9407C18.685 12.0598 18.9488 12.5168 18.8297 12.9613C18.5448 14.0245 17.9171 14.964 17.0439 15.634C16.1707 16.304 15.1007 16.6672 14.0001 16.6672C12.8994 16.6672 11.8295 16.304 10.9563 15.634C10.083 14.964 9.45532 14.0245 9.17045 12.9613C9.05133 12.5168 9.31515 12.0598 9.7597 11.9407C10.2043 11.8216 10.6612 12.0854 10.7803 12.53C10.9702 13.2387 11.3887 13.8651 11.9709 14.3117C12.553 14.7584 13.2663 15.0006 14.0001 15.0006C14.7339 15.0006 15.4471 14.7584 16.0293 14.3117C16.6114 13.8651 17.0299 13.2387 17.2198 12.53C17.3389 12.0854 17.7959 11.8216 18.2405 11.9407Z" fill="#3D4A26"/>
<path fill-rule="evenodd" clip-rule="evenodd" d="M8.87654 6.85632C9.17986 6.73068 9.50495 6.66602 9.83325 6.66602C10.1616 6.66602 10.4866 6.73068 10.79 6.85632C11.0933 6.98195 11.3689 7.1661 11.601 7.39825C11.8332 7.6304 12.0173 7.90599 12.143 8.20931C12.2686 8.51262 12.3333 8.83771 12.3333 9.16602C12.3333 9.62625 11.9602 9.99935 11.4999 9.99935C11.0397 9.99935 10.6666 9.62625 10.6666 9.16602C10.6666 9.05658 10.645 8.94822 10.6032 8.84711C10.5613 8.74601 10.4999 8.65414 10.4225 8.57676C10.3451 8.49938 10.2533 8.43799 10.1522 8.39612C10.0511 8.35424 9.94269 8.33268 9.83325 8.33268C9.72382 8.33268 9.61545 8.35424 9.51435 8.39612C9.41324 8.43799 9.32138 8.49938 9.244 8.57676C9.16661 8.65414 9.10523 8.74601 9.06335 8.84711C9.02147 8.94822 8.99992 9.05658 8.99992 9.16602C8.99992 9.62625 8.62682 9.99935 8.16659 9.99935C7.70635 9.99935 7.33325 9.62625 7.33325 9.16602C7.33325 8.83771 7.39792 8.51262 7.52355 8.20931C7.64919 7.90599 7.83334 7.6304 8.06548 7.39825C8.29763 7.1661 8.57323 6.98195 8.87654 6.85632Z" fill="#3D4A26"/>
</g>
<defs>
<filter id="filter0_d_2237_2072" x="0" y="0" width="28" height="28" filterUnits="userSpaceOnUse" color-interpolation-filters="sRGB">
<feFlood flood-opacity="0" result="BackgroundImageFix"/>
<feColorMatrix in="SourceAlpha" type="matrix" values="0 0 0 0 0 0 0 0 0 0 0 0 0 0 0 0 0 0 127 0" result="hardAlpha"/>
<feOffset dy="4"/>
<feGaussianBlur stdDeviation="2"/>
<feComposite in2="hardAlpha" operator="out"/>
<feColorMatrix type="matrix" values="0 0 0 0 0 0 0 0 0 0 0 0 0 0 0 0 0 0 0.25 0"/>
<feBlend mode="normal" in2="BackgroundImageFix" result="effect1_dropShadow_2237_2072"/>
<feBlend mode="normal" in="SourceGraphic" in2="effect1_dropShadow_2237_2072" result="shape"/>
</filter>
</defs>
</svg>
