<svg width="28" height="28" viewBox="0 0 28 28" fill="none" xmlns="http://www.w3.org/2000/svg">
<g filter="url(#filter0_d_2237_2073)">
<rect x="4" width="20" height="20" rx="10" fill="#FFCE5C" shape-rendering="crispEdges"/>
<path fill-rule="evenodd" clip-rule="evenodd" d="M19.0001 5.83398C19.4603 5.83398 19.8334 6.20708 19.8334 6.66732L19.8334 9.16732C19.8334 9.62755 19.4603 10.0007 19.0001 10.0007C18.5398 10.0007 18.1667 9.62755 18.1667 9.16732L18.1667 6.66732C18.1667 6.20708 18.5398 5.83398 19.0001 5.83398Z" fill="#705600"/>
<path fill-rule="evenodd" clip-rule="evenodd" d="M9.00008 5.83398C9.46032 5.83398 9.83341 6.20708 9.83341 6.66732L9.83341 9.16732C9.83341 9.62755 9.46032 10.0007 9.00008 10.0007C8.53984 10.0007 8.16675 9.62755 8.16675 9.16732L8.16675 6.66732C8.16675 6.20708 8.53984 5.83398 9.00008 5.83398Z" fill="#705600"/>
<path fill-rule="evenodd" clip-rule="evenodd" d="M18.2405 11.9407C18.685 12.0598 18.9488 12.5168 18.8297 12.9613C18.5448 14.0245 17.9171 14.964 17.0439 15.634C16.1707 16.304 15.1007 16.6672 14.0001 16.6672C12.8994 16.6672 11.8295 16.304 10.9563 15.634C10.083 14.964 9.45532 14.0245 9.17045 12.9613C9.05133 12.5168 9.31515 12.0598 9.7597 11.9407C10.2043 11.8216 10.6612 12.0854 10.7803 12.53C10.9702 13.2387 11.3887 13.8651 11.9709 14.3117C12.553 14.7584 13.2663 15.0006 14.0001 15.0006C14.7339 15.0006 15.4471 14.7584 16.0293 14.3117C16.6114 13.8651 17.0299 13.2387 17.2198 12.53C17.3389 12.0854 17.7959 11.8216 18.2405 11.9407Z" fill="#705600"/>
</g>
<defs>
<filter id="filter0_d_2237_2073" x="0" y="0" width="28" height="28" filterUnits="userSpaceOnUse" color-interpolation-filters="sRGB">
<feFlood flood-opacity="0" result="BackgroundImageFix"/>
<feColorMatrix in="SourceAlpha" type="matrix" values="0 0 0 0 0 0 0 0 0 0 0 0 0 0 0 0 0 0 127 0" result="hardAlpha"/>
<feOffset dy="4"/>
<feGaussianBlur stdDeviation="2"/>
<feComposite in2="hardAlpha" operator="out"/>
<feColorMatrix type="matrix" values="0 0 0 0 0 0 0 0 0 0 0 0 0 0 0 0 0 0 0.25 0"/>
<feBlend mode="normal" in2="BackgroundImageFix" result="effect1_dropShadow_2237_2073"/>
<feBlend mode="normal" in="SourceGraphic" in2="effect1_dropShadow_2237_2073" result="shape"/>
</filter>
</defs>
</svg>
