<svg width="23" height="28" viewBox="0 0 23 28" fill="none" xmlns="http://www.w3.org/2000/svg">
<g filter="url(#filter0_d_2084_7346)">
<path fill-rule="evenodd" clip-rule="evenodd" d="M13.0248 0C13.0248 0 12.281 3.23363 14.1399 6.12304C15.9987 9.01281 22.348 14.7061 13.3676 20C13.3676 20 15.2692 17.2966 14.312 15.4508C13.3537 13.6055 11.2942 12.2322 11.637 9.34279C11.637 9.34279 8.92075 10.4734 10.1214 15.5941C10.1214 15.5941 8.59071 15.0365 7.94746 13.5269C7.94746 13.5269 6.99646 16.4879 8.74056 19.9503C8.74056 19.9503 -0.483208 15.5502 6.9537 7.00407C6.9537 7.00407 7.11049 9.79408 8.21207 10.567C8.21207 10.567 6.39487 3.01401 13.0237 0.00219254L13.0248 0Z" fill="#FE631B"/>
</g>
<defs>
<filter id="filter0_d_2084_7346" x="0.055603" y="0" width="22" height="28" filterUnits="userSpaceOnUse" color-interpolation-filters="sRGB">
<feFlood flood-opacity="0" result="BackgroundImageFix"/>
<feColorMatrix in="SourceAlpha" type="matrix" values="0 0 0 0 0 0 0 0 0 0 0 0 0 0 0 0 0 0 127 0" result="hardAlpha"/>
<feOffset dy="4"/>
<feGaussianBlur stdDeviation="2"/>
<feComposite in2="hardAlpha" operator="out"/>
<feColorMatrix type="matrix" values="0 0 0 0 0 0 0 0 0 0 0 0 0 0 0 0 0 0 0.25 0"/>
<feBlend mode="normal" in2="BackgroundImageFix" result="effect1_dropShadow_2084_7346"/>
<feBlend mode="normal" in="SourceGraphic" in2="effect1_dropShadow_2084_7346" result="shape"/>
</filter>
</defs>
</svg>
