<svg width="15" height="20" viewBox="0 0 15 20" fill="none" xmlns="http://www.w3.org/2000/svg">
<path fill-rule="evenodd" clip-rule="evenodd" d="M9.02479 0C9.02479 0 8.28102 3.23363 10.1399 6.12304C11.9987 9.01281 18.348 14.7061 9.36761 20C9.36761 20 11.2692 17.2966 10.312 15.4508C9.35373 13.6055 7.29421 12.2322 7.63704 9.34279C7.63704 9.34279 4.92075 10.4734 6.12137 15.5941C6.12137 15.5941 4.59071 15.0365 3.94746 13.5269C3.94746 13.5269 2.99646 16.4879 4.74056 19.9503C4.74056 19.9503 -4.48321 15.5502 2.9537 7.00407C2.9537 7.00407 3.11049 9.79408 4.21207 10.567C4.21207 10.567 2.39487 3.01401 9.02369 0.00219254L9.02479 0Z" fill="#FE631B"/>
</svg>
