<svg width="64" height="64" viewBox="0 0 64 64" fill="none" xmlns="http://www.w3.org/2000/svg">
<rect width="64" height="64" rx="32" fill="#F7F4F2"/>
<circle cx="32" cy="32" r="9" stroke="#926247" stroke-width="2"/>
<path d="M36.8296 33.2941C36.5448 34.3573 35.917 35.2967 35.0438 35.9668C34.1706 36.6368 33.1007 37 32 37C30.8993 37 29.8294 36.6368 28.9562 35.9668C28.083 35.2967 27.4552 34.3573 27.1704 33.2941" stroke="#926247" stroke-width="2"/>
<path d="M30 30.5C30 30.303 29.9612 30.108 29.8858 29.926C29.8104 29.744 29.6999 29.5786 29.5607 29.4393C29.4214 29.3001 29.256 29.1896 29.074 29.1142C28.892 29.0388 28.697 29 28.5 29C28.303 29 28.108 29.0388 27.926 29.1142C27.744 29.1896 27.5786 29.3001 27.4393 29.4393C27.3001 29.5786 27.1896 29.744 27.1142 29.926C27.0388 30.108 27 30.303 27 30.5" stroke="#926247" stroke-width="2"/>
<path d="M37 30.5C37 30.303 36.9612 30.108 36.8858 29.926C36.8104 29.744 36.6999 29.5786 36.5607 29.4393C36.4214 29.3001 36.256 29.1896 36.074 29.1142C35.892 29.0388 35.697 29 35.5 29C35.303 29 35.108 29.0388 34.926 29.1142C34.744 29.1896 34.5786 29.3001 34.4393 29.4393C34.3001 29.5786 34.1896 29.744 34.1142 29.926C34.0388 30.108 34 30.303 34 30.5" stroke="#926247" stroke-width="2"/>
</svg>
