<svg width="64" height="64" viewBox="0 0 64 64" fill="none" xmlns="http://www.w3.org/2000/svg">
<rect width="64" height="64" rx="32" fill="#F2F5EB"/>
<path d="M27.5456 38.6896C29.4678 39.074 31.3463 37.8568 31.7807 35.9453L32 34.9805L32.8875 35.8257C33.6618 36.5631 34.1 37.5856 34.1 38.6549V41.9805C34.1 42.5328 34.5477 42.9805 35.1 42.9805C35.6523 42.9805 36.1 42.5328 36.1 41.9805V38.3805C36.1 36.5286 35.341 34.7576 34 33.4805L34.6 30.4805C35.7005 31.7503 37.3026 32.6618 39.1031 32.9116C39.6501 32.9875 40.1 32.5328 40.1 31.9805C40.1 31.4282 39.6481 30.9908 39.1057 30.8867C37.6497 30.6074 36.4559 29.7284 35.8 28.5805L34.8 26.9805C34.4 26.3805 33.8 25.9805 33.1 25.9805C32.8 25.9805 32.6 26.0805 32.3 26.0805L30.4945 26.8443C28.4369 27.7148 27.1 29.7433 27.1 31.9774C27.1 32.5297 27.5477 32.9805 28.1 32.9805C28.6523 32.9805 29.1 32.5328 29.1 31.9805V31.5118C29.1 30.3474 29.8148 29.3025 30.9 28.8805L29.603 35.4465C29.436 36.2921 28.6125 36.8402 27.768 36.6678L25.4012 36.1848C24.8489 36.0721 24.3102 36.4297 24.1996 36.9824C24.0894 37.5336 24.4468 38.0698 24.998 38.1801L27.5456 38.6896Z" fill="#7D944D"/>
<rect x="32" y="21" width="4" height="4" rx="2" fill="#7D944D"/>
</svg>
