<svg width="64" height="64" viewBox="0 0 64 64" fill="none" xmlns="http://www.w3.org/2000/svg">
<rect width="64" height="64" rx="32" fill="#FFF4E0"/>
<path d="M37.0325 42V37.7963C37.0325 36.4955 37.7297 35.3218 38.5277 34.2947C38.836 33.898 39.1018 33.4676 39.3196 33.0105C39.8365 31.9253 40.0653 30.7254 39.9839 29.5262C39.9026 28.327 39.5138 27.1689 38.855 26.1635C38.1963 25.1582 37.2898 24.3394 36.2228 23.786C35.1557 23.2326 33.9642 22.9633 32.763 23.004C31.5617 23.0447 30.3911 23.3941 29.364 24.0184C28.3369 24.6427 27.4879 25.521 26.8987 26.5687C26.3095 27.6163 26 28.798 26 30L24 34H26V37H29V42" stroke="#FFBD1A" stroke-width="2" stroke-linejoin="round"/>
<path d="M36.5 31.5L33.2941 34.7059C33.1317 34.8683 32.8683 34.8683 32.7059 34.7059L29.5 31.5C28.6716 30.6716 28.6716 29.3284 29.5 28.5C30.3284 27.6716 31.6716 27.6716 32.5 28.5L33 29L33.5 28.5C34.3284 27.6716 35.6716 27.6716 36.5 28.5C37.3284 29.3284 37.3284 30.6716 36.5 31.5Z" stroke="#FFBD1A" stroke-width="2" stroke-linejoin="round"/>
</svg>
